<svg version="1.1" xmlns="http://www.w3.org/2000/svg" xmlns:xlink="http://www.w3.org/1999/xlink" width="701" height="700" viewBox="610,105.5,701,700">
<g id="document" fill="currentColor1" fill-rule="nonzero" ><rect x="610" y="75.35714" transform="scale(1,1.4)" width="700" height="500" id="Shape 1 1" vector-effect="non-scaling-stroke" fill="currentColor1" />
</g>
<!-- Start look for fill="#8c8c8c" and change to fill="currentColor2"-->
<g fill="none" fill-rule="nonzero" stroke="none" stroke-width="1" stroke-linecap="none" stroke-linejoin="none" stroke-miterlimit="10" stroke-dasharray="" stroke-dashoffset="0" font-family="none" font-weight="none" font-size="none" text-anchor="none" style="mix-blend-mode: normal">
<g id="stage">
<g id="layer1 1">
<path d="M931,241" id="Path 1" fill="none" stroke="#000000" stroke-linecap="round" stroke-linejoin="round"/>
<path d="M543.35363,750.45148" id="Path 1" fill="none" stroke="#000000" stroke-linecap="round" stroke-linejoin="round"/>
<path d="M1237.70605,244.71895" id="Path 1" fill="none" stroke="#000000" stroke-linecap="round" stroke-linejoin="round"/>
<path d="M619.18521,809.69861" id="Path 1" fill="none" stroke="#000000" stroke-linecap="round" stroke-linejoin="round"/>
<path d="M618.79559,713.5363" id="Path 1" fill="none" stroke="#000000" stroke-linecap="round" stroke-linejoin="round"/>
<path d="M1230.80407,115.63317" id="Path 1" fill="none" stroke="#000000" stroke-linecap="round" stroke-linejoin="round"/>
<path d="M1231.59607,110.93577" id="Path 1" fill="none" stroke="#000000" stroke-linecap="round" stroke-linejoin="round"/>
<path d="M1310.83255,196.31714l-1.18686,-84.33446" id="Path 1" fill="none" stroke="#000000" stroke-linecap="round" stroke-linejoin="round"/>
<g id="Group 1" fill="currentColor2">
<path d="M968.77196,266.07648l-54.99726,120.19577l-129.00274,1.80423l86.77778,91.22222l-31.22222,149.77778l124.9645,-85.95077l129.47994,92.95077l-35,-144l99,-102l-123.47859,4.15113z" id="Path 4" stroke="#8c8c8c" stroke-linecap="round" stroke-linejoin="round"/>
<path d="M682.56067,111.35243l-72.54649,0.03604l-0.73516,84.85559l39.46018,-26.11836l115.0355,82.95077l-33.95709,-140.92861l-47.25694,-0.79543" id="Path 2 1" stroke="#000000" stroke-linecap="butt" stroke-linejoin="miter"/>
<path d="M1309.89609,111.98604l-78.30002,-1.05027c-12.59092,77.57035 -17.49544,106.65924 -26.15744,155.14071l105.50432,-69.83241" id="Path 3 1" stroke="#000000" stroke-linecap="butt" stroke-linejoin="miter"/>
<path d="M1310.94295,704.54246l-129.00274,1.80423l79,89l-2.84256,16.85929l52.51552,-0.35988z" id="Path 4" stroke="#000000" stroke-linecap="round" stroke-linejoin="round"/>
<path d="M608.79811,706.55443l1.59748,104.98187l144.57421,0.66968l98.80217,-101.79617l-123.47859,4.15113l-66.52141,-128.15113l-54.99726,120.19577" id="Path 1 1" stroke="#000000" stroke-linecap="butt" stroke-linejoin="miter"/>
</g>
</g>
</g>
</g>
<!-- End -->
</svg>